<?xml version="1.0" encoding="UTF-8" standalone="no"?>
<!-- Created with Inkscape (http://www.inkscape.org/) -->

<svg
   xmlns:dc="http://purl.org/dc/elements/1.1/"
   xmlns:cc="http://creativecommons.org/ns#"
   xmlns:rdf="http://www.w3.org/1999/02/22-rdf-syntax-ns#"
   xmlns:svg="http://www.w3.org/2000/svg"
   xmlns="http://www.w3.org/2000/svg"
   xmlns:xlink="http://www.w3.org/1999/xlink"
   xmlns:sodipodi="http://sodipodi.sourceforge.net/DTD/sodipodi-0.dtd"
   xmlns:inkscape="http://www.inkscape.org/namespaces/inkscape"
   width="64"
   height="64"
   id="svg5453"
   version="1.1"
   inkscape:version="0.48.4 r9939"
   sodipodi:docname="folder-music.svg">
  <defs
     id="defs5455">
    <linearGradient
       id="linearGradient4233">
      <stop
         style="stop-color:#9b6e0a;stop-opacity:1;"
         offset="0"
         id="stop4235" />
      <stop
         style="stop-color:#97730e;stop-opacity:0;"
         offset="1"
         id="stop4237" />
    </linearGradient>
    <linearGradient
       id="linearGradient4232">
      <stop
         id="stop4234"
         offset="0"
         style="stop-color:#9b7e16;stop-opacity:1;" />
      <stop
         id="stop4236"
         offset="1"
         style="stop-color:#ac8b2f;stop-opacity:1;" />
    </linearGradient>
    <linearGradient
       id="linearGradient4172">
      <stop
         style="stop-color:#c09316;stop-opacity:1;"
         offset="0"
         id="stop4174" />
      <stop
         style="stop-color:#f4cf68;stop-opacity:1;"
         offset="1"
         id="stop4176" />
    </linearGradient>
    <linearGradient
       inkscape:collect="always"
       xlink:href="#linearGradient4172"
       id="linearGradient4178"
       x1="414.57144"
       y1="541.79797"
       x2="414.57144"
       y2="499.798"
       gradientUnits="userSpaceOnUse"
       gradientTransform="matrix(1,0,0,0.99967455,0,0.17645)" />
    <linearGradient
       inkscape:collect="always"
       xlink:href="#linearGradient4232"
       id="linearGradient4182"
       gradientUnits="userSpaceOnUse"
       x1="414.57144"
       y1="523.79797"
       x2="414.57144"
       y2="505.798"
       gradientTransform="matrix(1,0,0,0.99954446,0,-15.75672)" />
    <linearGradient
       inkscape:collect="always"
       xlink:href="#linearGradient4233"
       id="linearGradient4239"
       x1="384.57144"
       y1="477.798"
       x2="404.57144"
       y2="497.798"
       gradientUnits="userSpaceOnUse"
       gradientTransform="translate(0,1.2e-4)" />
  </defs>
  <sodipodi:namedview
     id="base"
     pagecolor="#ffffff"
     bordercolor="#666666"
     borderopacity="1.0"
     inkscape:pageopacity="0"
     inkscape:pageshadow="2"
     inkscape:zoom="7.9999996"
     inkscape:cx="17.708788"
     inkscape:cy="11.108858"
     inkscape:document-units="px"
     inkscape:current-layer="layer1"
     showgrid="true"
     fit-margin-top="0"
     fit-margin-left="0"
     fit-margin-right="0"
     fit-margin-bottom="0"
     inkscape:window-width="1871"
     inkscape:window-height="1056"
     inkscape:window-x="49"
     inkscape:window-y="24"
     inkscape:window-maximized="1"
     inkscape:showpageshadow="false"
     borderlayer="true"
     showguides="true">
    <sodipodi:guide
       position="6.0000117,57.999996"
       orientation="51.999969,0"
       id="guide4097" />
    <sodipodi:guide
       position="6.0000117,6.0000264"
       orientation="0,52"
       id="guide4099" />
    <sodipodi:guide
       position="58.000012,6.0000264"
       orientation="-51.999969,0"
       id="guide4101" />
    <sodipodi:guide
       position="58.000012,57.999996"
       orientation="0,-52"
       id="guide4103" />
    <sodipodi:guide
       position="3.0000117,60.999996"
       orientation="57.999969,0"
       id="guide4105" />
    <sodipodi:guide
       position="3.0000117,3.0000264"
       orientation="0,58"
       id="guide4107" />
    <sodipodi:guide
       position="61.000012,3.0000264"
       orientation="-57.999969,0"
       id="guide4109" />
    <sodipodi:guide
       position="61.000012,60.999996"
       orientation="0,-58"
       id="guide4111" />
    <inkscape:grid
       type="xygrid"
       id="grid4115" />
  </sodipodi:namedview>
  <metadata
     id="metadata5458">
    <rdf:RDF>
      <cc:Work
         rdf:about="">
        <dc:format>image/svg+xml</dc:format>
        <dc:type
           rdf:resource="http://purl.org/dc/dcmitype/StillImage" />
        <dc:title />
      </cc:Work>
    </rdf:RDF>
  </metadata>
  <g
     inkscape:label="Capa 1"
     inkscape:groupmode="layer"
     id="layer1"
     transform="translate(-384.57143,-483.798)">
    <path
       style="fill:url(#linearGradient4182);fill-opacity:1;stroke:none"
       d="m 388.57143,489.79812 0,5 0,22 c 0,0.55373 0.446,1 1,1 l 54,0 c 0.55399,0 1,-0.44627 1,-1 l 0,-21.99023 c 0,-0.003 -0.002,-0.006 -0.002,-0.01 l 0.002,0 0,-1 -28,0 -3,-4 -25,0 z"
       id="rect4180"
       inkscape:connector-curvature="0" />
    <path
       style="fill:url(#linearGradient4239);fill-opacity:1.0;fill-rule:evenodd;stroke:none;stroke-width:1px;stroke-linecap:butt;stroke-linejoin:miter;stroke-opacity:1"
       d="m 388.57143,489.79812 26,26 1,1 29,-16.74316 0,-6.25684 -28,0 -3,-4 z"
       id="path4230"
       inkscape:connector-curvature="0" />
    <path
       style="fill:url(#linearGradient4178);fill-opacity:1.0;stroke:none"
       d="m 406.57143,499.79812 -3,4 -16,0 0,1 0.002,0 c -5e-5,0.004 -0.002,0.008 -0.002,0.0117 l 0,35.98828 0,1 1,0 56,0 1,0 0,-1 0,-35.98828 0,-0.0117 0,-5 -39,0 z"
       id="rect4113"
       inkscape:connector-curvature="0" />
    <path
       style="fill:#ccbf8f;fill-opacity:1;fill-rule:evenodd;stroke:none;stroke-width:1px;stroke-linecap:butt;stroke-linejoin:miter;stroke-opacity:1"
       d="m 444.57143,493.79812 0,1 -29,0 -2,-5 3,4 z"
       id="path4222"
       inkscape:connector-curvature="0" />
    <path
       style="fill:#ffffff;fill-opacity:0.23529412;fill-rule:evenodd;stroke:none;stroke-width:1px;stroke-linecap:butt;stroke-linejoin:miter;stroke-opacity:1"
       d="m 387.57144,503.79812 0,1 16.99999,0 2,-5 -3,4 z"
       id="path4224"
       inkscape:connector-curvature="0" />
    <path
       style="fill:#806625;fill-opacity:1;fill-rule:evenodd;stroke:none;stroke-width:1px;stroke-linecap:butt;stroke-linejoin:miter;stroke-opacity:1"
       d="m 388.57143,502.79812 0,1 15,0 3,-4 -5,3 z"
       id="path4228"
       inkscape:connector-curvature="0" />
    <path
       inkscape:connector-curvature="0"
       style="fill:#8d6f18;fill-opacity:1;stroke:none"
       d="m 387.57143,540.7981 0,1 1,0 56,0 1,0 0,-1 -1,0 -56,0 -1,0 z"
       id="path4151-2" />
    <path
       style="opacity:0.3;color:#000000;fill:#ffffff;fill-opacity:1;fill-rule:nonzero;stroke:none;stroke-width:1.70000005;marker:none;visibility:visible;display:inline;overflow:visible;enable-background:accumulate"
       id="rect2996-4-9-3"
       inkscape:connector-curvature="0"
       d="m 425.56032,507.03362 -12.50306,3.22862 c -0.93921,0.25142 -1.69533,1.25157 -1.69533,2.22299 l 0,15.40211 c -0.95238,-0.49822 -2.17554,-0.69967 -3.44363,-0.3705 -2.2883,0.594 -3.72225,2.51372 -3.23173,4.28719 0.49052,1.77347 2.74472,2.76406 5.03301,2.17006 1.82559,-0.4739 3.084,-1.81472 3.2847,-3.22863 l 0.053,-14.55526 11.86731,-3.17569 0,11.48542 c -0.95239,-0.49821 -2.17554,-0.69967 -3.44364,-0.3705 -2.2883,0.59401 -3.72224,2.51372 -3.23172,4.28719 0.49052,1.77348 2.74472,2.76406 5.03301,2.17006 1.82559,-0.47389 3.084,-1.81472 3.2847,-3.22862 l 0.053,-18.94831 c 0,-0.72856 -0.4507,-1.27364 -1.05959,-1.37613 z" />
    <path
       style="color:#000000;fill:#3c2f15;fill-opacity:0.8509804;fill-rule:nonzero;stroke:none;stroke-width:1.70000005000000010;marker:none;visibility:visible;display:inline;overflow:visible;enable-background:accumulate"
       id="rect2996-4-9"
       inkscape:connector-curvature="0"
       d="m 425.56032,506.46876 -12.50306,3.22862 c -0.93921,0.25142 -1.69533,1.25158 -1.69533,2.22299 l 0,15.40211 c -0.95238,-0.49821 -2.17554,-0.69967 -3.44364,-0.3705 -2.28829,0.594 -3.72224,2.51372 -3.23172,4.28719 0.49052,1.77347 2.74472,2.76406 5.03301,2.17006 1.82559,-0.47389 3.08401,-1.81472 3.2847,-3.22862 l 0.053,-14.55527 11.86732,-3.17569 0,11.48542 c -0.95239,-0.49821 -2.17555,-0.69967 -3.44364,-0.37049 -2.2883,0.594 -3.72225,2.51371 -3.23173,4.28718 0.49052,1.77348 2.74472,2.76406 5.03301,2.17006 1.82559,-0.47389 3.08401,-1.81471 3.28471,-3.22862 l 0.053,-18.94831 c 0,-0.72855 -0.4507,-1.27364 -1.05959,-1.37613 z" />
  </g>
</svg>
