/* XPM */
static char *locked[] = {
/* columns rows colors chars-per-pixel */
"22 22 30 1",
"  c #A4A4A4",
". c #A9A9A9",
"X c #ACACAC",
"o c #B1B1B1",
"O c #B5B5B5",
"+ c #B9B9B9",
"@ c #BEBEBE",
"# c #BFBFBF",
"$ c #C2C2C2",
"% c #C4C4C4",
"& c #C6C6C6",
"* c #CBCBCB",
"= c #CFCFCF",
"- c #D2D2D2",
"; c #D3D3D3",
": c #D5D5D5",
"> c #D8D8D8",
", c #DADADA",
"< c #DCDCDC",
"1 c #E0E0E0",
"2 c #E1E1E1",
"3 c #E5E5E5",
"4 c #E8E8E8",
"5 c #E9E9E9",
"6 c #EAEAEA",
"7 c #ECECEC",
"8 c #EDEDED",
"9 c #F1F1F1",
"0 c #F8F8F8",
"q c None",
/* pixels */
"qqqqqqqqqqqqqqqqqqqqqq",
"qqqqqqqqqqqqqqqqqqqqqq",
"qqqqqqqqqqqqqqqqqqqqqq",
"qqqqqqqqq900009qqqqqqq",
"qqqqqqqq57555575qqqqqq",
"qqqqqqqq53qqqq35qqqqqq",
"qqqqqqqq22qqqq22qqqqqq",
"qqqqqqqq<<qqqq<<qqqqqq",
"qqqqqqqq>>qqqq>>qqqqqq",
"qqqqqqq3;;7777::3qqqqq",
"qqqqqq>:========:>qqqq",
"qqqqqq;***#qq#***;qqqq",
"qqqqqq&&&&qqqq&&&&qqqq",
"qqqqqq$$$$qqqq$$$$qqqq",
"qqqqqq####&qq&####qqqq",
"qqqqqqO+++qqqq++++qqqq",
"qqqqqqOOOOqqqqOOOOqqqq",
"qqqqqq.ooo>22>ooo.qqqq",
"qqqqqqq XXXX.XXX qqqqq",
"qqqqqqqqqqqqqqqqqqqqqq",
"qqqqqqqqqqqqqqqqqqqqqq",
"qqqqqqqqqqqqqqqqqqqqqq"
};
