<?xml version="1.0" encoding="UTF-8" standalone="no"?>
<!-- Created with Inkscape (http://www.inkscape.org/) -->

<svg
   xmlns:dc="http://purl.org/dc/elements/1.1/"
   xmlns:cc="http://creativecommons.org/ns#"
   xmlns:rdf="http://www.w3.org/1999/02/22-rdf-syntax-ns#"
   xmlns:svg="http://www.w3.org/2000/svg"
   xmlns="http://www.w3.org/2000/svg"
   xmlns:xlink="http://www.w3.org/1999/xlink"
   xmlns:sodipodi="http://sodipodi.sourceforge.net/DTD/sodipodi-0.dtd"
   xmlns:inkscape="http://www.inkscape.org/namespaces/inkscape"
   width="64"
   height="64"
   id="svg5453"
   version="1.1"
   inkscape:version="0.48.4 r9939"
   sodipodi:docname="folder-music.svg">
  <defs
     id="defs5455">
    <linearGradient
       id="linearGradient4233">
      <stop
         style="stop-color:#345871;stop-opacity:1;"
         offset="0"
         id="stop4235" />
      <stop
         style="stop-color:#345871;stop-opacity:0;"
         offset="1"
         id="stop4237" />
    </linearGradient>
    <linearGradient
       id="linearGradient4232">
      <stop
         id="stop4234"
         offset="0"
         style="stop-color:#3d6a84;stop-opacity:1;" />
      <stop
         id="stop4236"
         offset="1"
         style="stop-color:#4a86a3;stop-opacity:1;" />
    </linearGradient>
    <linearGradient
       id="linearGradient4172">
      <stop
         style="stop-color:#54a9d2;stop-opacity:1;"
         offset="0"
         id="stop4174" />
      <stop
         style="stop-color:#92c9e3;stop-opacity:1;"
         offset="1"
         id="stop4176" />
    </linearGradient>
    <linearGradient
       inkscape:collect="always"
       xlink:href="#linearGradient4172"
       id="linearGradient4178"
       x1="414.57144"
       y1="541.79797"
       x2="414.57144"
       y2="499.798"
       gradientUnits="userSpaceOnUse"
       gradientTransform="matrix(1,0,0,0.99967455,0,0.17645)" />
    <linearGradient
       inkscape:collect="always"
       xlink:href="#linearGradient4232"
       id="linearGradient4182"
       gradientUnits="userSpaceOnUse"
       x1="414.57144"
       y1="523.79797"
       x2="414.57144"
       y2="505.798"
       gradientTransform="matrix(1,0,0,0.99954446,0,-15.75672)" />
    <linearGradient
       inkscape:collect="always"
       xlink:href="#linearGradient4233"
       id="linearGradient4239"
       x1="384.57144"
       y1="477.798"
       x2="404.57144"
       y2="497.798"
       gradientUnits="userSpaceOnUse"
       gradientTransform="translate(0,1.2e-4)" />
  </defs>
  <sodipodi:namedview
     id="base"
     pagecolor="#ffffff"
     bordercolor="#666666"
     borderopacity="1.0"
     inkscape:pageopacity="0"
     inkscape:pageshadow="2"
     inkscape:zoom="11.313708"
     inkscape:cx="44.237678"
     inkscape:cy="2.9300046"
     inkscape:document-units="px"
     inkscape:current-layer="layer1"
     showgrid="true"
     fit-margin-top="0"
     fit-margin-left="0"
     fit-margin-right="0"
     fit-margin-bottom="0"
     inkscape:window-width="1871"
     inkscape:window-height="1056"
     inkscape:window-x="49"
     inkscape:window-y="24"
     inkscape:window-maximized="1"
     inkscape:showpageshadow="false"
     borderlayer="true"
     showguides="true">
    <sodipodi:guide
       position="6.0000117,57.999996"
       orientation="51.999969,0"
       id="guide4097" />
    <sodipodi:guide
       position="6.0000117,6.0000264"
       orientation="0,52"
       id="guide4099" />
    <sodipodi:guide
       position="58.000012,6.0000264"
       orientation="-51.999969,0"
       id="guide4101" />
    <sodipodi:guide
       position="58.000012,57.999996"
       orientation="0,-52"
       id="guide4103" />
    <sodipodi:guide
       position="3.0000117,60.999996"
       orientation="57.999969,0"
       id="guide4105" />
    <sodipodi:guide
       position="3.0000117,3.0000264"
       orientation="0,58"
       id="guide4107" />
    <sodipodi:guide
       position="61.000012,3.0000264"
       orientation="-57.999969,0"
       id="guide4109" />
    <sodipodi:guide
       position="61.000012,60.999996"
       orientation="0,-58"
       id="guide4111" />
    <inkscape:grid
       type="xygrid"
       id="grid4115" />
  </sodipodi:namedview>
  <metadata
     id="metadata5458">
    <rdf:RDF>
      <cc:Work
         rdf:about="">
        <dc:format>image/svg+xml</dc:format>
        <dc:type
           rdf:resource="http://purl.org/dc/dcmitype/StillImage" />
        <dc:title></dc:title>
      </cc:Work>
    </rdf:RDF>
  </metadata>
  <g
     inkscape:label="Capa 1"
     inkscape:groupmode="layer"
     id="layer1"
     transform="translate(-384.57143,-483.798)">
    <path
       style="fill:url(#linearGradient4182);fill-opacity:1;stroke:none"
       d="m 388.57143,489.79812 0,5 0,22 c 0,0.55373 0.446,1 1,1 l 54,0 c 0.55399,0 1,-0.44627 1,-1 l 0,-21.99023 c 0,-0.003 -0.002,-0.006 -0.002,-0.01 l 0.002,0 0,-1 -28,0 -3,-4 -25,0 z"
       id="rect4180"
       inkscape:connector-curvature="0" />
    <path
       style="fill:url(#linearGradient4239);fill-opacity:1.0;fill-rule:evenodd;stroke:none;stroke-width:1px;stroke-linecap:butt;stroke-linejoin:miter;stroke-opacity:1"
       d="m 388.57143,489.79812 26,26 1,1 29,-16.74316 0,-6.25684 -28,0 -3,-4 z"
       id="path4230"
       inkscape:connector-curvature="0" />
    <path
       style="fill:url(#linearGradient4178);fill-opacity:1;stroke:none"
       d="m 406.57143,499.79812 -3,4 -16,0 0,1 0.002,0 c -5e-5,0.004 -0.002,0.008 -0.002,0.0117 l 0,35.98828 0,1 1,0 56,0 1,0 0,-1 0,-35.98828 0,-0.0117 0,-5 -39,0 z"
       id="rect4113"
       inkscape:connector-curvature="0" />
    <path
       style="fill:#8fb5cc;fill-opacity:1;fill-rule:evenodd;stroke:none;stroke-width:1px;stroke-linecap:butt;stroke-linejoin:miter;stroke-opacity:1"
       d="m 444.57143,493.79812 0,1 -29,0 -2,-5 3,4 z"
       id="path4222"
       inkscape:connector-curvature="0" />
    <path
       style="fill:#ffffff;fill-opacity:0.23529412;fill-rule:evenodd;stroke:none;stroke-width:1px;stroke-linecap:butt;stroke-linejoin:miter;stroke-opacity:1"
       d="m 387.57144,503.79812 0,1 16.99999,0 2,-5 -3,4 z"
       id="path4224"
       inkscape:connector-curvature="0" />
    <path
       style="fill:#345e71;fill-opacity:1;fill-rule:evenodd;stroke:none;stroke-width:1px;stroke-linecap:butt;stroke-linejoin:miter;stroke-opacity:1"
       d="m 388.57143,502.79812 0,1 15,0 3,-4 -5,3 z"
       id="path4228"
       inkscape:connector-curvature="0" />
    <path
       inkscape:connector-curvature="0"
       style="fill:#368aac;fill-opacity:1;stroke:none"
       d="m 387.57143,540.7981 0,1 1,0 56,0 1,0 0,-1 -1,0 -56,0 -1,0 z"
       id="path4151-2" />
    <path
       inkscape:connector-curvature="0"
       d="m 419.1068,507.30005 c -0.15972,-0.0111 -0.33575,0.0349 -0.48543,0.12137 l -8.40842,4.85434 6.65739,0 1.73369,-1.00555 0.57212,1.00555 3.22468,0 -2.63522,-4.55962 c -0.14404,-0.24947 -0.3926,-0.39747 -0.65881,-0.41609 z m -11.7371,6.62272 -4.59429,2.65255 c -0.39918,0.23046 -0.54253,0.72775 -0.31208,1.1269 l 4.90637,8.49511 0,-5.54782 -1.24827,-2.16713 1.24827,-0.72814 0,-3.83147 z m 2.49651,0.0694 c -0.46091,0 -0.83217,0.37126 -0.83217,0.83218 l 0,18.29047 c 0,0.46091 0.37126,0.83217 0.83217,0.83217 l 18.30782,0 c 0.46091,0 0.83217,-0.37126 0.83217,-0.83217 l 0,-18.29047 c 0,-0.46092 -0.37126,-0.83218 -0.83217,-0.83218 l -18.30782,0 z m 1.94174,3.31135 14.42433,0 0,11.65044 -14.42433,0 0,-11.65044 z"
       id="rect6430-9-7"
       style="opacity:0.3;color:#000000;fill:#ffffff;fill-opacity:1;fill-rule:nonzero;stroke:none;stroke-width:1.70000005;marker:none;visibility:visible;display:inline;overflow:visible;enable-background:accumulate" />
    <path
       inkscape:connector-curvature="0"
       d="m 419.1068,506.74555 c -0.15972,-0.0111 -0.33575,0.0349 -0.48543,0.12135 l -8.40842,4.85435 6.65739,0 1.73369,-1.00553 0.57212,1.00553 3.22468,0 -2.63522,-4.55961 c -0.14404,-0.24947 -0.3926,-0.39749 -0.65881,-0.41609 z m -11.7371,6.62272 -4.59429,2.65255 c -0.39918,0.23047 -0.54253,0.72774 -0.31208,1.1269 l 4.90637,8.4951 0,-5.54782 -1.24827,-2.16712 1.24827,-0.72815 0,-3.83146 z m 2.49651,0.0694 c -0.46091,0 -0.83217,0.37125 -0.83217,0.83217 l 0,18.29047 c 0,0.46091 0.37126,0.83218 0.83217,0.83218 l 18.30782,0 c 0.46091,0 0.83217,-0.37127 0.83217,-0.83218 l 0,-18.29047 c 0,-0.46092 -0.37126,-0.83217 -0.83217,-0.83217 l -18.30782,0 z m 1.94174,3.31135 14.42433,0 0,11.65043 -14.42433,0 0,-11.65043 z"
       id="rect6430-9"
       style="color:#000000;fill:#163950;fill-opacity:0.85098039;fill-rule:nonzero;stroke:none;stroke-width:1.70000005;marker:none;visibility:visible;display:inline;overflow:visible;enable-background:accumulate" />
  </g>
</svg>
