<?xml version="1.0" encoding="UTF-8" standalone="no"?>
<!-- Created using Karbon, part of Calligra: http://www.calligra.org/karbon -->

<svg
   xmlns:dc="http://purl.org/dc/elements/1.1/"
   xmlns:cc="http://creativecommons.org/ns#"
   xmlns:rdf="http://www.w3.org/1999/02/22-rdf-syntax-ns#"
   xmlns:svg="http://www.w3.org/2000/svg"
   xmlns="http://www.w3.org/2000/svg"
   xmlns:sodipodi="http://sodipodi.sourceforge.net/DTD/sodipodi-0.dtd"
   xmlns:inkscape="http://www.inkscape.org/namespaces/inkscape"
   width="38.4pt"
   height="38.4pt"
   id="svg2"
   version="1.1"
   inkscape:version="0.48.4 r9939"
   sodipodi:docname="distributor-logo.svg">
  <metadata
     id="metadata13">
    <rdf:RDF>
      <cc:Work
         rdf:about="">
        <dc:format>image/svg+xml</dc:format>
        <dc:type
           rdf:resource="http://purl.org/dc/dcmitype/StillImage" />
      </cc:Work>
    </rdf:RDF>
  </metadata>
  <sodipodi:namedview
     pagecolor="#ffffff"
     bordercolor="#666666"
     borderopacity="1"
     objecttolerance="10"
     gridtolerance="10"
     guidetolerance="10"
     inkscape:pageopacity="0"
     inkscape:pageshadow="2"
     inkscape:window-width="1179"
     inkscape:window-height="825"
     id="namedview11"
     showgrid="false"
     inkscape:zoom="2.4583334"
     inkscape:cx="-90.597"
     inkscape:cy="-45.937306"
     inkscape:window-x="281"
     inkscape:window-y="167"
     inkscape:window-maximized="0"
     inkscape:current-layer="layer1" />
  <defs
     id="defs4" />
  <g
     id="layer0">
    <g
       id="layer1"
       transform="translate(0.87894, 0.87894)"
       fill="none">
      <rect
         id="shape0"
         stroke-miterlimit="2.00000000000"
         width="32.00320504820pt"
         height="32.00320504820pt"
         style="fill:#4d4d4d"
         stroke-linejoin="miter"
         stroke-linecap="square"
         stroke-width="0.00000000000"
         stroke="#003bc3"
         fill-rule="evenodd"
         fill="#2980b9"
         transform="translate(3.125, 3.125)" />
      <path
         id="gear_path"
         stroke-miterlimit="2.00000000000"
         d="m 14.058594,12.158284 c -0.0615,0.0063 -0.128,0.02309 -0.17424,0.06906 0,0 -2.13813,2.117967 -2.13813,2.117967 -0.08981,0.0892 -0.10077,0.22579 -0.03484,0.33376 0,0 2.49831,4.0863 2.49831,4.0863 -0.44361,0.7387 -0.80386,1.53113 -1.05747,2.3712 0,0 -4.5898609,0.94386 -4.5898609,0.94386 -0.1277262,0.02617 -0.220779,0.14658 -0.220779,0.27628 0,0 0,2.9927 0,2.9927 0,0.1266 0.097142,0.2349 0.220779,0.2648 0,0 4.4504409,1.0705 4.4504409,1.0705 0.238,0.9726 0.60563,1.9033 1.09229,2.751 0,0 -2.57964,3.8906 -2.57964,3.8906 -0.07195,0.1087 -0.05792,0.2536 0.03484,0.3454 0,0 2.1381,2.1179 2.1381,2.1179 0.09008,0.0889 0.22821,0.1001 0.33697,0.0345 0,0 4.04373,-2.4287 4.04373,-2.4287 0.79319,0.4535 1.65179,0.817 2.55639,1.059 0,0 0.9413,4.4892 0.9413,4.4892 0.0263,0.1267 0.1364,0.2187 0.2672,0.2187 0,0 3.0211,0 3.0211,0 0.1269,0 0.2372,-0.0845 0.2673,-0.2075 0,0 1.1155,-4.512 1.1155,-4.512 0.933,-0.2492 1.8126,-0.6191 2.6262,-1.0935 0,0 3.9856,2.5899 3.9856,2.5899 0.1099,0.0709 0.2554,0.0572 0.3486,-0.0345 0,0 2.1265,-2.118 2.1265,-2.118 0.0903,-0.0893 0.1126,-0.226 0.0464,-0.3338 0,0 -1.4525,-2.3712 -1.4525,-2.3712 0,0 -0.6214,0.1399 -0.6623,0.0806 0,0 -0.9175,-1.337 -2.1149,-3.0733 -1.4319,2.7756 -4.3522,4.6733 -7.7156,4.6733 -4.7794,0 -8.65684,-3.841 -8.65684,-8.5754 0,-3.48254 2.10228,-6.47366 5.11274,-7.81572 0,0 0,-2.21006 0,-2.21006 -0.5478,0.18996 -1.0772,0.41916 -1.58027,0.69064 -9.7e-4,-5.7e-4 9.3e-4,-0.01098 0,-0.01149 0,0 -4.07859,-2.647481 -4.07859,-2.647481 -0.05487,-0.03551 -0.11283,-0.0408 -0.17433,-0.03451 0,0 0,0 0,0 z"
         inkscape:connector-curvature="0"
         style="fill:#f9f9f9;stroke:#003bc3;stroke-width:0;stroke-linecap:butt;stroke-linejoin:miter;stroke-miterlimit:2" />
      <path
         style="fill:#f9f9f9;stroke:#003bc3;stroke-width:0;stroke-linecap:butt;stroke-linejoin:miter;stroke-miterlimit:2"
         inkscape:connector-curvature="0"
         id="gear_path-1"
         stroke-miterlimit="2.00000000000"
         d="m 32.886197,35.112783 c 0.06034,-0.0062 0.125597,-0.02262 0.170968,-0.06767 l -0.163548,-3.563636 c 0.08813,-0.0874 2.563795,2.18229 2.499095,2.076493 l -2.654783,-4.91934 c 0.435279,-0.723837 0.788763,-1.500324 1.037611,-2.323491 l 4.503665,-0.92487 c 0.125327,-0.02565 0.216633,-0.143631 0.216633,-0.270721 l 0,-2.932487 c 0,-0.124054 -0.09532,-0.230175 -0.216633,-0.259474 l -4.366863,-1.04896 c -0.23353,-0.953033 -0.594256,-1.865007 -1.071778,-2.69565 l 2.531195,-3.812323 c 0.07061,-0.106509 0.05683,-0.248498 -0.03419,-0.338451 l -2.097947,-2.075288 c -0.08839,-0.0871 -0.223924,-0.09808 -0.330642,-0.0338 l -3.96779,2.379837 C 28.162896,13.858574 27.32042,13.502389 26.432809,13.265257 L 25.509185,8.8663808 c -0.0258,-0.124152 -0.133837,-0.2143 -0.262182,-0.2143 l -2.964363,0 c -0.124518,0 -0.232746,0.0828 -0.262281,0.203325 l -1.094551,4.4212172 c -0.915478,0.244187 -1.77856,0.606646 -2.576881,1.0715 l -3.910751,-2.537792 c -0.107836,-0.06947 -0.250605,-0.05606 -0.342054,0.0338 l -2.086566,2.075386 c -0.0886,0.08749 -0.110484,0.221453 -0.04552,0.327085 l 1.425223,2.323492 c 0,0 0.60973,-0.137086 0.649863,-0.07898 0,0 0.468814,2.029192 1.643726,3.730558 1.40501,-2.719755 4.270469,-4.579275 7.570704,-4.579275 4.689645,0 8.925723,3.044629 8.925723,7.683773 0,3.412472 -1.775163,7.781594 -4.729089,9.096653 l -0.287637,0.72741 c 0.537515,-0.186137 1.056971,-0.410727 1.550594,-0.676744 9.64e-4,5.59e-4 -9e-4,0.01073 0,0.01126 l 4.001995,2.594215 c 0.05384,0.0348 0.110712,0.03998 0.171059,0.03382 z"
         sodipodi:nodetypes="cccccccssccccccccccssccccccccccsscccccc" />
      <path
         sodipodi:type="arc"
         style="fill:#4d4d4d;fill-opacity:1"
         id="path2990"
         sodipodi:cx="24.880569"
         sodipodi:cy="26.283432"
         sodipodi:rx="9.4920092"
         sodipodi:ry="9.3481913"
         d="m 34.372579,26.283432 a 9.4920092,9.3481913 0 1 1 -18.984019,0 9.4920092,9.3481913 0 1 1 18.984019,0 z"
         transform="translate(-1.5980316,-2.3171233)" />
    </g>
  </g>
</svg>
