<?xml version="1.0" encoding="UTF-8" standalone="no"?>
<!-- Created with Inkscape (http://www.inkscape.org/) -->

<svg
   xmlns:dc="http://purl.org/dc/elements/1.1/"
   xmlns:cc="http://creativecommons.org/ns#"
   xmlns:rdf="http://www.w3.org/1999/02/22-rdf-syntax-ns#"
   xmlns:svg="http://www.w3.org/2000/svg"
   xmlns="http://www.w3.org/2000/svg"
   xmlns:xlink="http://www.w3.org/1999/xlink"
   xmlns:sodipodi="http://sodipodi.sourceforge.net/DTD/sodipodi-0.dtd"
   xmlns:inkscape="http://www.inkscape.org/namespaces/inkscape"
   width="64"
   height="64"
   id="svg5453"
   version="1.1"
   inkscape:version="0.48.4 r9939"
   sodipodi:docname="folder-videos.svg">
  <defs
     id="defs5455">
    <linearGradient
       id="linearGradient4233">
      <stop
         style="stop-color:#716134;stop-opacity:1;"
         offset="0"
         id="stop4235" />
      <stop
         style="stop-color:#716134;stop-opacity:0;"
         offset="1"
         id="stop4237" />
    </linearGradient>
    <linearGradient
       id="linearGradient4232">
      <stop
         id="stop4234"
         offset="0"
         style="stop-color:#847b3d;stop-opacity:1;" />
      <stop
         id="stop4236"
         offset="1"
         style="stop-color:#a38c4a;stop-opacity:1;" />
    </linearGradient>
    <linearGradient
       id="linearGradient4172">
      <stop
         style="stop-color:#cd9e49;stop-opacity:1;"
         offset="0"
         id="stop4174" />
      <stop
         style="stop-color:#e1ca8a;stop-opacity:1;"
         offset="1"
         id="stop4176" />
    </linearGradient>
    <linearGradient
       inkscape:collect="always"
       xlink:href="#linearGradient4172"
       id="linearGradient4178"
       x1="414.57144"
       y1="541.79797"
       x2="414.57144"
       y2="499.798"
       gradientUnits="userSpaceOnUse"
       gradientTransform="matrix(1,0,0,0.99967455,0,0.17645)" />
    <linearGradient
       inkscape:collect="always"
       xlink:href="#linearGradient4232"
       id="linearGradient4182"
       gradientUnits="userSpaceOnUse"
       x1="414.57144"
       y1="523.79797"
       x2="414.57144"
       y2="505.798"
       gradientTransform="matrix(1,0,0,0.99954446,0,-15.75672)" />
    <linearGradient
       inkscape:collect="always"
       xlink:href="#linearGradient4233"
       id="linearGradient4239"
       x1="384.57144"
       y1="477.798"
       x2="404.57144"
       y2="497.798"
       gradientUnits="userSpaceOnUse"
       gradientTransform="translate(0,1.2e-4)" />
  </defs>
  <sodipodi:namedview
     id="base"
     pagecolor="#ffffff"
     bordercolor="#666666"
     borderopacity="1.0"
     inkscape:pageopacity="0"
     inkscape:pageshadow="2"
     inkscape:zoom="7.9999996"
     inkscape:cx="0.5033617"
     inkscape:cy="8.738775"
     inkscape:document-units="px"
     inkscape:current-layer="layer1-3-4-9"
     showgrid="true"
     fit-margin-top="0"
     fit-margin-left="0"
     fit-margin-right="0"
     fit-margin-bottom="0"
     inkscape:window-width="1871"
     inkscape:window-height="1056"
     inkscape:window-x="49"
     inkscape:window-y="24"
     inkscape:window-maximized="1"
     inkscape:showpageshadow="false"
     borderlayer="true"
     showguides="true">
    <sodipodi:guide
       position="6.0000117,57.999996"
       orientation="51.999969,0"
       id="guide4097" />
    <sodipodi:guide
       position="6.0000117,6.0000264"
       orientation="0,52"
       id="guide4099" />
    <sodipodi:guide
       position="58.000012,6.0000264"
       orientation="-51.999969,0"
       id="guide4101" />
    <sodipodi:guide
       position="58.000012,57.999996"
       orientation="0,-52"
       id="guide4103" />
    <sodipodi:guide
       position="3.0000117,60.999996"
       orientation="57.999969,0"
       id="guide4105" />
    <sodipodi:guide
       position="3.0000117,3.0000264"
       orientation="0,58"
       id="guide4107" />
    <sodipodi:guide
       position="61.000012,3.0000264"
       orientation="-57.999969,0"
       id="guide4109" />
    <sodipodi:guide
       position="61.000012,60.999996"
       orientation="0,-58"
       id="guide4111" />
    <inkscape:grid
       type="xygrid"
       id="grid4115" />
  </sodipodi:namedview>
  <metadata
     id="metadata5458">
    <rdf:RDF>
      <cc:Work
         rdf:about="">
        <dc:format>image/svg+xml</dc:format>
        <dc:type
           rdf:resource="http://purl.org/dc/dcmitype/StillImage" />
        <dc:title />
      </cc:Work>
    </rdf:RDF>
  </metadata>
  <g
     inkscape:label="Capa 1"
     inkscape:groupmode="layer"
     id="layer1"
     transform="translate(-384.57143,-483.798)">
    <path
       style="fill:url(#linearGradient4182);fill-opacity:1;stroke:none"
       d="m 388.57143,489.79812 0,5 0,22 c 0,0.55373 0.446,1 1,1 l 54,0 c 0.55399,0 1,-0.44627 1,-1 l 0,-21.99023 c 0,-0.003 -0.002,-0.006 -0.002,-0.01 l 0.002,0 0,-1 -28,0 -3,-4 -25,0 z"
       id="rect4180"
       inkscape:connector-curvature="0" />
    <path
       style="fill:url(#linearGradient4239);fill-opacity:1;fill-rule:evenodd;stroke:none;stroke-width:1px;stroke-linecap:butt;stroke-linejoin:miter;stroke-opacity:1"
       d="m 388.57143,489.79812 26,26 1,1 29,-16.74316 0,-6.25684 -28,0 -3,-4 z"
       id="path4230"
       inkscape:connector-curvature="0" />
    <path
       style="fill:url(#linearGradient4178);fill-opacity:1.0;stroke:none"
       d="m 406.57143,499.79812 -3,4 -16,0 0,1 0.002,0 c -5e-5,0.004 -0.002,0.008 -0.002,0.0117 l 0,35.98828 0,1 1,0 56,0 1,0 0,-1 0,-35.98828 0,-0.0117 0,-5 -39,0 z"
       id="rect4113"
       inkscape:connector-curvature="0" />
    <path
       style="fill:#ccb48f;fill-opacity:1;fill-rule:evenodd;stroke:none;stroke-width:1px;stroke-linecap:butt;stroke-linejoin:miter;stroke-opacity:1"
       d="m 444.57143,493.79812 0,1 -29,0 -2,-5 3,4 z"
       id="path4222"
       inkscape:connector-curvature="0" />
    <path
       style="fill:#ffffff;fill-opacity:0.23529412;fill-rule:evenodd;stroke:none;stroke-width:1px;stroke-linecap:butt;stroke-linejoin:miter;stroke-opacity:1"
       d="m 387.57144,503.79812 0,1 16.99999,0 2,-5 -3,4 z"
       id="path4224"
       inkscape:connector-curvature="0" />
    <path
       style="fill:#715f34;fill-opacity:1;fill-rule:evenodd;stroke:none;stroke-width:1px;stroke-linecap:butt;stroke-linejoin:miter;stroke-opacity:1"
       d="m 388.57143,502.79812 0,1 15,0 3,-4 -5,3 z"
       id="path4228"
       inkscape:connector-curvature="0" />
    <path
       inkscape:connector-curvature="0"
       style="fill:#b0802f;fill-opacity:1;stroke:none"
       d="m 387.57143,540.7981 0,1 1,0 56,0 1,0 0,-1 -1,0 -56,0 -1,0 z"
       id="path4151-2" />
    <path
       inkscape:connector-curvature="0"
       d="m 406.66372,509.85686 c -0.71977,0 -1.29921,0.57945 -1.29921,1.29921 l 0,23.38583 c 0,0.71976 0.57944,1.29921 1.29921,1.29921 l 21.65355,0 c 0.71975,0 1.29921,-0.57945 1.29921,-1.29921 l 0,-23.38583 c 0,-0.71976 -0.57946,-1.29921 -1.29921,-1.29921 l -21.65355,0 z m 0.43308,1.73228 1.73228,0 0,1.73228 -1.73228,0 0,-1.73228 z m 4.33071,0 12.12598,0 c 0.47984,0 0.86613,0.38631 0.86613,0.86614 l 0,8.66143 c 0,0.47984 -0.38629,0.86614 -0.86613,0.86614 l -12.12598,0 c -0.47985,0 -0.86615,-0.3863 -0.86615,-0.86614 l 0,-8.66143 c 0,-0.47983 0.3863,-0.86614 0.86615,-0.86614 z m 14.72441,0 1.73227,0 0,1.73228 -1.73227,0 0,-1.73228 z m -19.05512,3.46457 1.73228,0 0,1.73228 -1.73228,0 0,-1.73228 z m 19.05512,0 1.73227,0 0,1.73228 -1.73227,0 0,-1.73228 z m -19.05512,3.46457 1.73228,0 0,1.73227 -1.73228,0 0,-1.73227 z m 19.05512,0 1.73227,0 0,1.73227 -1.73227,0 0,-1.73227 z m -19.05512,3.46457 1.73228,0 0,1.73227 -1.73228,0 0,-1.73227 z m 19.05512,0 1.73227,0 0,1.73227 -1.73227,0 0,-1.73227 z m -14.72441,1.73227 12.12598,0 c 0.47984,0 0.86613,0.38631 0.86613,0.86616 l 0,8.6614 c 0,0.47984 -0.38629,0.86615 -0.86613,0.86615 l -12.12598,0 c -0.47985,0 -0.86615,-0.38631 -0.86615,-0.86615 l 0,-8.6614 c 0,-0.47985 0.3863,-0.86616 0.86615,-0.86616 z m -4.33071,1.73229 1.73228,0 0,1.73228 -1.73228,0 0,-1.73228 z m 19.05512,0 1.73227,0 0,1.73228 -1.73227,0 0,-1.73228 z m -19.05512,3.46457 1.73228,0 0,1.73228 -1.73228,0 0,-1.73228 z m 19.05512,0 1.73227,0 0,1.73228 -1.73227,0 0,-1.73228 z m -19.05512,3.46456 1.73228,0 0,1.73229 -1.73228,0 0,-1.73229 z m 19.05512,0 1.73227,0 0,1.73229 -1.73227,0 0,-1.73229 z"
       id="rect3032-7-5-6"
       style="opacity:0.3;color:#000000;fill:#ffffff;fill-opacity:1;fill-rule:nonzero;stroke:none;stroke-width:1.70000005;marker:none;visibility:visible;display:inline;overflow:visible;enable-background:accumulate" />
    <g
       transform="matrix(1.6833705,0,0,1.6833705,403.93114,509.52943)"
       id="layer1-3-4-9"
       style="color:#000000;fill:#ffffff;fill-opacity:0.85098039;fill-rule:nonzero;stroke:none;stroke-width:1.70000005;marker:none;visibility:visible;display:inline;overflow:visible;enable-background:accumulate">
      <path
         inkscape:connector-curvature="0"
         d="m 1.6232809,-0.14851158 c -0.4275731,0 -0.77179247,0.34421944 -0.77179247,0.77179246 l 0,13.89226412 c 0,0.427573 0.34421937,0.771792 0.77179247,0.771792 l 12.8632071,0 c 0.427573,0 0.771793,-0.344219 0.771793,-0.771792 l 0,-13.89226412 c 0,-0.42757302 -0.34422,-0.77179246 -0.771793,-0.77179246 l -12.8632071,0 z m 0.2572641,1.0290566 1.0290566,0 0,1.02905658 -1.0290566,0 0,-1.02905658 z m 2.5726416,0 7.2033954,0 c 0.285049,0 0.514529,0.22947958 0.514529,0.51452828 l 0,5.1452831 c 0,0.2850487 -0.22948,0.5145283 -0.514529,0.5145283 l -7.2033954,0 c -0.2850487,0 -0.5145283,-0.2294796 -0.5145283,-0.5145283 l 0,-5.1452831 c 0,-0.2850487 0.2294796,-0.51452828 0.5145283,-0.51452828 z m 8.7469804,0 1.029057,0 0,1.02905658 -1.029057,0 0,-1.02905658 z M 1.880545,2.9386582 l 1.0290566,0 0,1.0290567 -1.0290566,0 0,-1.0290567 z m 11.319622,0 1.029057,0 0,1.0290567 -1.029057,0 0,-1.0290567 z m -11.319622,2.0581133 1.0290566,0 0,1.0290566 -1.0290566,0 0,-1.0290566 z m 11.319622,0 1.029057,0 0,1.0290566 -1.029057,0 0,-1.0290566 z m -11.319622,2.0581132 1.0290566,0 0,1.0290566 -1.0290566,0 0,-1.0290566 z m 11.319622,0 1.029057,0 0,1.0290566 -1.029057,0 0,-1.0290566 z m -8.7469804,1.0290566 7.2033954,0 c 0.285049,0 0.514529,0.2294796 0.514529,0.5145283 l 0,5.1452824 c 0,0.285049 -0.22948,0.514529 -0.514529,0.514529 l -7.2033954,0 c -0.2850487,0 -0.5145283,-0.22948 -0.5145283,-0.514529 l 0,-5.1452824 c 0,-0.2850487 0.2294796,-0.5145283 0.5145283,-0.5145283 z m -2.5726416,1.0290566 1.0290566,0 0,1.0290561 -1.0290566,0 0,-1.0290561 z m 11.319622,0 1.029057,0 0,1.0290561 -1.029057,0 0,-1.0290561 z m -11.319622,2.0581131 1.0290566,0 0,1.029056 -1.0290566,0 0,-1.029056 z m 11.319622,0 1.029057,0 0,1.029056 -1.029057,0 0,-1.029056 z m -11.319622,2.058113 1.0290566,0 0,1.029057 -1.0290566,0 0,-1.029057 z m 11.319622,0 1.029057,0 0,1.029057 -1.029057,0 0,-1.029057 z"
         id="rect3032-7-5"
         style="color:#000000;fill:#3c3414;fill-opacity:0.8509804;fill-rule:nonzero;stroke:none;stroke-width:1.70000005000000010;marker:none;visibility:visible;display:inline;overflow:visible;enable-background:accumulate" />
    </g>
  </g>
</svg>
