/* XPM */
static char *locked[] = {
/* columns rows colors chars-per-pixel */
"24 24 30 1",
"  c #A4A4A4",
". c #A9A9A9",
"X c #ACACAC",
"o c #B1B1B1",
"O c #B5B5B5",
"+ c #B9B9B9",
"@ c #BEBEBE",
"# c #BFBFBF",
"$ c #C2C2C2",
"% c #C4C4C4",
"& c #C6C6C6",
"* c #CBCBCB",
"= c #CFCFCF",
"- c #D2D2D2",
"; c #D3D3D3",
": c #D5D5D5",
"> c #D8D8D8",
", c #DADADA",
"< c #DCDCDC",
"1 c #E0E0E0",
"2 c #E1E1E1",
"3 c #E5E5E5",
"4 c #E8E8E8",
"5 c #E9E9E9",
"6 c #EAEAEA",
"7 c #ECECEC",
"8 c #EDEDED",
"9 c #F1F1F1",
"0 c #F8F8F8",
"q c None",
/* pixels */
"qqqqqqqqqqqqqqqqqqqqqqqq",
"qqqqqqqqqqqqqqqqqqqqqqqq",
"qqqqqqqqqqqqqqqqqqqqqqqq",
"qqqqqqqqqqqqqqqqqqqqqqqq",
"qqqqqqqqqq900009qqqqqqqq",
"qqqqqqqqq57555575qqqqqqq",
"qqqqqqqqq53qqqq35qqqqqqq",
"qqqqqqqqq22qqqq22qqqqqqq",
"qqqqqqqqq<<qqqq<<qqqqqqq",
"qqqqqqqqq>>qqqq>:qqqqqqq",
"qqqqqqqq3;;7777:;3qqqqqq",
"qqqqqqq>:===;===;:>qqqqq",
"qqqqqqq;***#qq#***;qqqqq",
"qqqqqqq&&&&qqqq&&&&qqqqq",
"qqqqqqq$$$$qqqq$$$$qqqqq",
"qqqqqqq####&qq$####qqqqq",
"qqqqqqq++++qqqq++++qqqqq",
"qqqqqqqOOOOqqqqOOOOqqqqq",
"qqqqqqq.ooo>22:ooo.qqqqq",
"qqqqqqqq XXXXXXXX qqqqqq",
"qqqqqqqqqqqqqqqqqqqqqqqq",
"qqqqqqqqqqqqqqqqqqqqqqqq",
"qqqqqqqqqqqqqqqqqqqqqqqq",
"qqqqqqqqqqqqqqqqqqqqqqqq"
};
