/* XPM */
static char *x[] = {
/* columns rows colors chars-per-pixel */
"24 24 37 1",
"  c #959595",
". c #A0A0A0",
"X c #A6A6A6",
"o c #A7A7A7",
"O c #B0B0B0",
"+ c #B2B2B2",
"@ c #B4B4B4",
"# c #B8B8B8",
"$ c #BCBCBC",
"% c #BFBFBF",
"& c #C0C0C0",
"* c #C1C1C1",
"= c #C5C5C5",
"- c #C7C7C7",
"; c #C8C8C8",
": c #C9C9C9",
"> c #CACACA",
", c #CDCDCD",
"< c #CECECE",
"1 c #D1D1D1",
"2 c #D3D3D3",
"3 c #D5D5D5",
"4 c #D6D6D6",
"5 c #D9D9D9",
"6 c #DCDCDC",
"7 c #DDDDDD",
"8 c #DEDEDE",
"9 c #E0E0E0",
"0 c #E1E1E1",
"q c #E2E2E2",
"w c #E6E6E6",
"e c #E7E7E7",
"r c #E9E9E9",
"t c #EDEDED",
"y c #EEEEEE",
"u c #F3F3F3",
"i c None",
/* pixels */
"iiiiiiiiiiiiiiiiiiiiiiii",
"iiiiiiiiiiiiiiiiiiiiiiii",
"iiiiiiiiiiiiiiiiiiiiiiii",
"iiiiiiiiiiiiiiiiiiiiiiii",
"iiiiiiitiiiiiiiitiiiiiii",
"iiiii3uru3iiii3uru3iiiii",
"iiiirteeetriirteeetriiii",
"iiiqeqqqqqetteqqqqqrqiii",
"iiii*666666q666q666*iiii",
"iiiiii55555ii55555iiiiii",
"iiiiiii,333ii333,iiiiiii",
"iiiiii=3111ii1113=iiiiii",
"iiiii661,,,ii,,,,66iiiii",
"iiiiq1:::::ii:::::3qiiii",
"iii::======ii======,,iii",
"iiiii%*****ee******iiiii",
"iiiiii@%%#%ii%%#%+iiiiii",
"iiiiiii ##@ii### iiiiiii",
"iiiiiiiii++eq++iiiiiiiii",
"iiiiiiiiiio@Ooiiiiiiiiii",
"iiiiiiiiiii  iiiiiiiiiii",
"iiiiiiiiiiiiiiiiiiiiiiii",
"iiiiiiiiiiiiiiiiiiiiiiii",
"iiiiiiiiiiiiiiiiiiiiiiii"
};
